<svg xmlns="http://www.w3.org/2000/svg" xmlns:xlink="http://www.w3.org/1999/xlink" width="48" zoomAndPan="magnify"
    viewBox="0 0 36 36.000001" height="48" preserveAspectRatio="xMidYMid meet" version="1.0">
    <path fill="#ac6aff"
        d="M 19.214844 9.523438 L 20.136719 8.601562 C 21.949219 6.789062 24.898438 6.742188 26.722656 8.546875 C 28.175781 9.984375 28.480469 12.148438 27.628906 13.890625 C 27.210938 14.746094 27.382812 15.773438 28.054688 16.449219 C 30.59375 13.90625 30.589844 9.773438 28.042969 7.238281 C 25.492188 4.703125 21.355469 4.753906 18.816406 7.296875 L 10.019531 16.09375 L 9.296875 15.371094 C 7.453125 13.527344 7.441406 10.511719 9.316406 8.703125 C 10.769531 7.300781 12.917969 7.035156 14.632812 7.898438 C 15.445312 8.308594 16.421875 8.164062 17.0625 7.523438 L 17.085938 7.5 C 17.113281 7.472656 17.113281 7.425781 17.085938 7.394531 C 14.574219 4.941406 10.550781 4.929688 8.027344 7.367188 C 5.402344 9.898438 5.410156 14.113281 7.992188 16.691406 L 16.785156 25.484375 L 15.851562 26.421875 C 14.039062 28.234375 11.085938 28.277344 9.265625 26.476562 C 7.8125 25.039062 7.507812 22.871094 8.359375 21.132812 C 8.777344 20.277344 8.605469 19.25 7.933594 18.574219 C 5.390625 21.113281 5.394531 25.25 7.945312 27.78125 C 10.492188 30.316406 14.628906 30.265625 17.171875 27.726562 L 25.980469 18.917969 L 26.707031 19.644531 C 28.519531 21.453125 28.5625 24.40625 26.761719 26.226562 C 25.324219 27.683594 23.15625 27.984375 21.417969 27.136719 C 20.558594 26.71875 19.535156 26.886719 18.859375 27.5625 C 21.398438 30.101562 25.535156 30.097656 28.070312 27.546875 C 30.601562 25 30.550781 20.863281 28.011719 18.320312 Z M 18.097656 24.171875 L 11.332031 17.40625 L 17.902344 10.835938 L 24.667969 17.601562 Z M 18.097656 24.171875 "
        fill-opacity="1" fill-rule="nonzero" />
</svg>