<svg xmlns="http://www.w3.org/2000/svg" xmlns:xlink="http://www.w3.org/1999/xlink" width="190" zoomAndPan="magnify" viewBox="0 0 142.5 30.000001" height="40" preserveAspectRatio="xMidYMid meet" version="1.0"><defs><g/><clipPath id="89b247c56c"><path d="M 5 0 L 35.445312 0 L 35.445312 29.03125 L 5 29.03125 Z M 5 0 " clip-rule="nonzero"/></clipPath></defs><g clip-path="url(#89b247c56c)"><path fill="#ac6aff" d="M 21.863281 4.746094 L 22.992188 3.617188 C 25.210938 1.402344 28.820312 1.347656 31.046875 3.550781 C 32.828125 5.308594 33.199219 7.957031 32.160156 10.085938 C 31.648438 11.132812 31.855469 12.390625 32.679688 13.214844 C 35.785156 10.109375 35.78125 5.050781 32.664062 1.949219 C 29.546875 -1.148438 24.484375 -1.085938 21.375 2.019531 L 10.617188 12.78125 L 9.734375 11.894531 C 7.476562 9.640625 7.464844 5.957031 9.757812 3.742188 C 11.535156 2.027344 14.160156 1.699219 16.261719 2.761719 C 17.253906 3.257812 18.449219 3.082031 19.234375 2.300781 L 19.261719 2.273438 C 19.296875 2.238281 19.296875 2.179688 19.261719 2.144531 C 16.1875 -0.859375 11.265625 -0.871094 8.179688 2.109375 C 4.96875 5.207031 4.980469 10.359375 8.136719 13.515625 L 18.894531 24.269531 L 17.75 25.414062 C 15.535156 27.628906 11.925781 27.683594 9.695312 25.480469 C 7.917969 23.722656 7.546875 21.074219 8.585938 18.945312 C 9.097656 17.898438 8.890625 16.640625 8.066406 15.816406 C 4.957031 18.921875 4.964844 23.980469 8.082031 27.078125 C 11.199219 30.179688 16.257812 30.117188 19.367188 27.007812 L 30.140625 16.234375 L 31.027344 17.125 C 33.246094 19.339844 33.300781 22.949219 31.097656 25.179688 C 29.335938 26.957031 26.6875 27.328125 24.558594 26.289062 C 23.511719 25.777344 22.253906 25.984375 21.429688 26.808594 C 24.539062 29.914062 29.59375 29.910156 32.695312 26.792969 C 35.796875 23.675781 35.734375 18.613281 32.625 15.507812 Z M 20.5 22.664062 L 12.222656 14.386719 L 20.257812 6.351562 L 28.535156 14.628906 Z M 20.5 22.664062 " fill-opacity="1" fill-rule="nonzero"/></g><g fill="#ffffff" fill-opacity="1"><g transform="translate(38.501211, 20.685486)"><g><path d="M 1.359375 0 L 1.359375 -12.5625 L 4.765625 -12.5625 L 4.765625 0 Z M 1.359375 0 "/></g></g><g transform="translate(44.628835, 20.685486)"><g><path d="M 13.046875 -9.90625 C 14.148438 -9.90625 14.992188 -9.617188 15.578125 -9.046875 C 16.171875 -8.484375 16.46875 -7.578125 16.46875 -6.328125 L 16.46875 0 L 13.109375 0 L 13.109375 -5.296875 C 13.109375 -6.035156 13.007812 -6.546875 12.8125 -6.828125 C 12.613281 -7.117188 12.320312 -7.265625 11.9375 -7.265625 C 11.382812 -7.265625 11.003906 -7.023438 10.796875 -6.546875 C 10.585938 -6.078125 10.484375 -5.40625 10.484375 -4.53125 L 10.484375 0 L 7.125 0 L 7.125 -5.296875 C 7.125 -5.765625 7.082031 -6.140625 7 -6.421875 C 6.914062 -6.710938 6.789062 -6.925781 6.625 -7.0625 C 6.457031 -7.195312 6.25 -7.265625 6 -7.265625 C 5.613281 -7.265625 5.3125 -7.148438 5.09375 -6.921875 C 4.882812 -6.691406 4.734375 -6.351562 4.640625 -5.90625 C 4.554688 -5.457031 4.515625 -4.910156 4.515625 -4.265625 L 4.515625 0 L 1.15625 0 L 1.15625 -9.734375 L 3.6875 -9.734375 L 4.1875 -8.53125 L 4.28125 -8.53125 C 4.445312 -8.789062 4.664062 -9.023438 4.9375 -9.234375 C 5.21875 -9.441406 5.546875 -9.601562 5.921875 -9.71875 C 6.296875 -9.84375 6.722656 -9.90625 7.203125 -9.90625 C 7.910156 -9.90625 8.5 -9.785156 8.96875 -9.546875 C 9.4375 -9.304688 9.816406 -8.972656 10.109375 -8.546875 L 10.203125 -8.546875 C 10.515625 -8.984375 10.910156 -9.316406 11.390625 -9.546875 C 11.878906 -9.785156 12.429688 -9.90625 13.046875 -9.90625 Z M 13.046875 -9.90625 "/></g></g><g transform="translate(62.229642, 20.685486)"><g><path d="M 10.453125 -4.890625 C 10.453125 -4.078125 10.335938 -3.351562 10.109375 -2.71875 C 9.890625 -2.09375 9.566406 -1.5625 9.140625 -1.125 C 8.722656 -0.695312 8.210938 -0.375 7.609375 -0.15625 C 7.003906 0.0625 6.328125 0.171875 5.578125 0.171875 C 4.867188 0.171875 4.21875 0.0625 3.625 -0.15625 C 3.039062 -0.375 2.53125 -0.695312 2.09375 -1.125 C 1.664062 -1.5625 1.332031 -2.09375 1.09375 -2.71875 C 0.851562 -3.351562 0.734375 -4.078125 0.734375 -4.890625 C 0.734375 -5.960938 0.929688 -6.867188 1.328125 -7.609375 C 1.722656 -8.359375 2.285156 -8.925781 3.015625 -9.3125 C 3.742188 -9.707031 4.613281 -9.90625 5.625 -9.90625 C 6.5625 -9.90625 7.390625 -9.707031 8.109375 -9.3125 C 8.835938 -8.925781 9.410156 -8.359375 9.828125 -7.609375 C 10.242188 -6.867188 10.453125 -5.960938 10.453125 -4.890625 Z M 4.15625 -4.890625 C 4.15625 -4.335938 4.203125 -3.867188 4.296875 -3.484375 C 4.390625 -3.097656 4.539062 -2.804688 4.75 -2.609375 C 4.96875 -2.410156 5.253906 -2.3125 5.609375 -2.3125 C 5.960938 -2.3125 6.238281 -2.410156 6.4375 -2.609375 C 6.644531 -2.804688 6.796875 -3.097656 6.890625 -3.484375 C 6.984375 -3.867188 7.03125 -4.335938 7.03125 -4.890625 C 7.03125 -5.441406 6.984375 -5.90625 6.890625 -6.28125 C 6.796875 -6.65625 6.644531 -6.9375 6.4375 -7.125 C 6.226562 -7.3125 5.945312 -7.40625 5.59375 -7.40625 C 5.082031 -7.40625 4.710938 -7.191406 4.484375 -6.765625 C 4.265625 -6.347656 4.15625 -5.722656 4.15625 -4.890625 Z M 4.15625 -4.890625 "/></g></g><g transform="translate(73.444999, 20.685486)"><g><path d="M 10.453125 -4.890625 C 10.453125 -4.078125 10.335938 -3.351562 10.109375 -2.71875 C 9.890625 -2.09375 9.566406 -1.5625 9.140625 -1.125 C 8.722656 -0.695312 8.210938 -0.375 7.609375 -0.15625 C 7.003906 0.0625 6.328125 0.171875 5.578125 0.171875 C 4.867188 0.171875 4.21875 0.0625 3.625 -0.15625 C 3.039062 -0.375 2.53125 -0.695312 2.09375 -1.125 C 1.664062 -1.5625 1.332031 -2.09375 1.09375 -2.71875 C 0.851562 -3.351562 0.734375 -4.078125 0.734375 -4.890625 C 0.734375 -5.960938 0.929688 -6.867188 1.328125 -7.609375 C 1.722656 -8.359375 2.285156 -8.925781 3.015625 -9.3125 C 3.742188 -9.707031 4.613281 -9.90625 5.625 -9.90625 C 6.5625 -9.90625 7.390625 -9.707031 8.109375 -9.3125 C 8.835938 -8.925781 9.410156 -8.359375 9.828125 -7.609375 C 10.242188 -6.867188 10.453125 -5.960938 10.453125 -4.890625 Z M 4.15625 -4.890625 C 4.15625 -4.335938 4.203125 -3.867188 4.296875 -3.484375 C 4.390625 -3.097656 4.539062 -2.804688 4.75 -2.609375 C 4.96875 -2.410156 5.253906 -2.3125 5.609375 -2.3125 C 5.960938 -2.3125 6.238281 -2.410156 6.4375 -2.609375 C 6.644531 -2.804688 6.796875 -3.097656 6.890625 -3.484375 C 6.984375 -3.867188 7.03125 -4.335938 7.03125 -4.890625 C 7.03125 -5.441406 6.984375 -5.90625 6.890625 -6.28125 C 6.796875 -6.65625 6.644531 -6.9375 6.4375 -7.125 C 6.226562 -7.3125 5.945312 -7.40625 5.59375 -7.40625 C 5.082031 -7.40625 4.710938 -7.191406 4.484375 -6.765625 C 4.265625 -6.347656 4.15625 -5.722656 4.15625 -4.890625 Z M 4.15625 -4.890625 "/></g></g><g transform="translate(84.660357, 20.685486)"><g><path d="M 4.484375 4.234375 C 3.097656 4.234375 2.03125 4 1.28125 3.53125 C 0.539062 3.070312 0.171875 2.410156 0.171875 1.546875 C 0.171875 0.960938 0.347656 0.484375 0.703125 0.109375 C 1.066406 -0.265625 1.613281 -0.535156 2.34375 -0.703125 C 2.039062 -0.828125 1.78125 -1.03125 1.5625 -1.3125 C 1.34375 -1.59375 1.234375 -1.867188 1.234375 -2.140625 C 1.234375 -2.453125 1.316406 -2.722656 1.484375 -2.953125 C 1.648438 -3.179688 1.992188 -3.457031 2.515625 -3.78125 C 2.015625 -4 1.617188 -4.347656 1.328125 -4.828125 C 1.035156 -5.304688 0.890625 -5.882812 0.890625 -6.5625 C 0.890625 -7.269531 1.050781 -7.867188 1.375 -8.359375 C 1.695312 -8.859375 2.171875 -9.238281 2.796875 -9.5 C 3.421875 -9.769531 4.175781 -9.90625 5.0625 -9.90625 C 5.1875 -9.90625 5.367188 -9.894531 5.609375 -9.875 C 5.859375 -9.851562 6.109375 -9.828125 6.359375 -9.796875 C 6.617188 -9.773438 6.816406 -9.753906 6.953125 -9.734375 L 10.34375 -9.734375 L 10.34375 -8.109375 L 9.015625 -7.625 C 9.109375 -7.457031 9.175781 -7.273438 9.21875 -7.078125 C 9.257812 -6.878906 9.28125 -6.671875 9.28125 -6.453125 C 9.28125 -5.410156 8.910156 -4.597656 8.171875 -4.015625 C 7.441406 -3.441406 6.347656 -3.15625 4.890625 -3.15625 C 4.523438 -3.15625 4.238281 -3.175781 4.03125 -3.21875 C 3.988281 -3.144531 3.957031 -3.070312 3.9375 -3 C 3.914062 -2.925781 3.90625 -2.859375 3.90625 -2.796875 C 3.90625 -2.671875 3.984375 -2.566406 4.140625 -2.484375 C 4.296875 -2.410156 4.488281 -2.359375 4.71875 -2.328125 C 4.945312 -2.296875 5.164062 -2.28125 5.375 -2.28125 L 6.984375 -2.28125 C 8.078125 -2.28125 8.894531 -2.050781 9.4375 -1.59375 C 9.976562 -1.132812 10.25 -0.445312 10.25 0.46875 C 10.25 1.65625 9.742188 2.578125 8.734375 3.234375 C 7.722656 3.898438 6.304688 4.234375 4.484375 4.234375 Z M 4.640625 2.125 C 5.046875 2.125 5.457031 2.085938 5.875 2.015625 C 6.289062 1.953125 6.640625 1.835938 6.921875 1.671875 C 7.203125 1.515625 7.34375 1.304688 7.34375 1.046875 C 7.34375 0.835938 7.257812 0.679688 7.09375 0.578125 C 6.925781 0.484375 6.707031 0.414062 6.4375 0.375 C 6.175781 0.34375 5.898438 0.328125 5.609375 0.328125 L 4.296875 0.328125 C 4.054688 0.328125 3.835938 0.363281 3.640625 0.4375 C 3.441406 0.519531 3.285156 0.628906 3.171875 0.765625 C 3.054688 0.898438 3 1.050781 3 1.21875 C 3 1.488281 3.148438 1.707031 3.453125 1.875 C 3.753906 2.039062 4.148438 2.125 4.640625 2.125 Z M 5.109375 -5.046875 C 5.421875 -5.046875 5.664062 -5.171875 5.84375 -5.421875 C 6.019531 -5.671875 6.109375 -6.039062 6.109375 -6.53125 C 6.109375 -7.03125 6.023438 -7.40625 5.859375 -7.65625 C 5.691406 -7.914062 5.441406 -8.046875 5.109375 -8.046875 C 4.753906 -8.046875 4.488281 -7.921875 4.3125 -7.671875 C 4.144531 -7.421875 4.0625 -7.046875 4.0625 -6.546875 C 4.0625 -6.046875 4.144531 -5.671875 4.3125 -5.421875 C 4.488281 -5.171875 4.753906 -5.046875 5.109375 -5.046875 Z M 5.109375 -5.046875 "/></g></g><g transform="translate(95.325689, 20.685486)"><g><path d="M 4.515625 0 L 1.15625 0 L 1.15625 -13.359375 L 4.515625 -13.359375 Z M 4.515625 0 "/></g></g><g transform="translate(101.015012, 20.685486)"><g><path d="M 5.546875 -9.90625 C 6.484375 -9.90625 7.296875 -9.738281 7.984375 -9.40625 C 8.671875 -9.082031 9.203125 -8.585938 9.578125 -7.921875 C 9.953125 -7.265625 10.140625 -6.441406 10.140625 -5.453125 L 10.140625 -3.953125 L 4.125 -3.953125 C 4.15625 -3.453125 4.347656 -3.035156 4.703125 -2.703125 C 5.054688 -2.378906 5.578125 -2.21875 6.265625 -2.21875 C 6.867188 -2.21875 7.421875 -2.273438 7.921875 -2.390625 C 8.429688 -2.515625 8.957031 -2.703125 9.5 -2.953125 L 9.5 -0.546875 C 9.03125 -0.296875 8.515625 -0.113281 7.953125 0 C 7.398438 0.113281 6.703125 0.171875 5.859375 0.171875 C 4.878906 0.171875 4.003906 0 3.234375 -0.34375 C 2.460938 -0.695312 1.851562 -1.238281 1.40625 -1.96875 C 0.957031 -2.707031 0.734375 -3.648438 0.734375 -4.796875 C 0.734375 -5.972656 0.929688 -6.9375 1.328125 -7.6875 C 1.734375 -8.4375 2.296875 -8.992188 3.015625 -9.359375 C 3.742188 -9.722656 4.585938 -9.90625 5.546875 -9.90625 Z M 5.65625 -7.625 C 5.257812 -7.625 4.925781 -7.5 4.65625 -7.25 C 4.394531 -7 4.242188 -6.609375 4.203125 -6.078125 L 7.09375 -6.078125 C 7.082031 -6.359375 7.019531 -6.613281 6.90625 -6.84375 C 6.800781 -7.082031 6.644531 -7.269531 6.4375 -7.40625 C 6.226562 -7.550781 5.96875 -7.625 5.65625 -7.625 Z M 5.65625 -7.625 "/></g></g></g><g fill="#ac6aff" fill-opacity="1"><g transform="translate(111.898388, 20.685486)"><g><path d="M 9.0625 0 L 8.4375 -2.359375 L 4.359375 -2.359375 L 3.734375 0 L 0 0 L 4.09375 -12.609375 L 8.625 -12.609375 L 12.78125 0 Z M 7.734375 -5.140625 L 7.203125 -7.203125 C 7.140625 -7.421875 7.050781 -7.738281 6.9375 -8.15625 C 6.832031 -8.570312 6.726562 -9 6.625 -9.4375 C 6.519531 -9.882812 6.441406 -10.253906 6.390625 -10.546875 C 6.335938 -10.253906 6.257812 -9.894531 6.15625 -9.46875 C 6.0625 -9.050781 5.960938 -8.632812 5.859375 -8.21875 C 5.765625 -7.8125 5.679688 -7.472656 5.609375 -7.203125 L 5.0625 -5.140625 Z M 7.734375 -5.140625 "/></g></g><g transform="translate(124.67788, 20.685486)"><g><path d="M 1.359375 0 L 1.359375 -12.5625 L 4.765625 -12.5625 L 4.765625 0 Z M 1.359375 0 "/></g></g></g></svg>